<svg xmlns="http://www.w3.org/2000/svg" xmlns:xlink="http://www.w3.org/1999/xlink" xmlns:inkscape="http://www.inkscape.org/namespaces/inkscape" version="1.1" width="360.481" height="331.239" viewBox="0 0 360.481 331.239">
<path transform="matrix(1,0,0,-1,180.241,145.77701)" stroke-width=".79701" stroke-linecap="butt" stroke-miterlimit="10" stroke-linejoin="miter" fill="none" stroke="#000000" d="M-121.89136-113.92114V113.92114C-121.89136 118.32303-118.32303 121.89136-113.92114 121.89136H113.92114C118.32303 121.89136 121.89136 118.32303 121.89136 113.92114V-113.92114C121.89136-118.32303 118.32303-121.89136 113.92114-121.89136H-113.92114C-118.32303-121.89136-121.89136-118.32303-121.89136-113.92114ZM121.89136 121.89136"/>
<path transform="matrix(1,0,0,-1,180.241,145.77701)" d="M6.07735 70.69647H-119.46458C-121.1153 70.69647-122.45341 69.35835-122.45341 67.70764V45.67958C-122.45341 44.02887-121.1153 42.69075-119.46458 42.69075H6.07735C7.72806 42.69075 9.06618 44.02887 9.06618 45.67958V67.70764C9.06618 69.35835 7.72806 70.69647 6.07735 70.69647ZM-122.45341 42.69075" fill="#ccccff"/>
<path transform="matrix(1,0,0,-1,180.241,145.77701)" stroke-width=".3985" stroke-linecap="butt" stroke-miterlimit="10" stroke-linejoin="miter" fill="none" stroke="#000000" d="M6.07735 70.69647H-119.46458C-121.1153 70.69647-122.45341 69.35835-122.45341 67.70764V45.67958C-122.45341 44.02887-121.1153 42.69075-119.46458 42.69075H6.07735C7.72806 42.69075 9.06618 44.02887 9.06618 45.67958V67.70764C9.06618 69.35835 7.72806 70.69647 6.07735 70.69647ZM-122.45341 42.69075"/>
<text xml:space="preserve" transform="matrix(1 0 -0 1 -.0000076293949 331.239)" font-size="9.9626" font-family="CMR10"><tspan y="-245.919" x="103.83 111.023 115.446399 118.215999 124.30314 129.98183 134.96312 138.83858">CellFate</tspan><tspan y="-233.964" x="61.109 68.302 75.77396 82.27953 87.26083 92.66056 100.13251">TNF/FAS</tspan></text>
<text xml:space="preserve" transform="matrix(1 0 -0 1 -.0000076293949 331.239)" font-size="9.9626" font-family="CMSY10" font-style="italic"><tspan y="-233.964" x="108.985">&#x2192;</tspan></text>
<text xml:space="preserve" transform="matrix(1 0 -0 1 -.0000076293949 331.239)" font-size="9.9626" font-family="CMR10"><tspan y="-233.964" x="122.269 129.46199 136.93395 142.47315 149.25768 154.23897 159.22026 166.69222">CASP3/NF</tspan></text>
<text xml:space="preserve" transform="matrix(1 0 -0 1 -.0000076293949 331.239)" font-size="9.9626" font-family="CMMI10" font-style="italic"><tspan y="-233.964" x="173.189">&#x03ba;</tspan></text>
<text xml:space="preserve" transform="matrix(1 0 -0 1 -.0000076293949 331.239)" font-size="9.9626" font-family="CMR10"><tspan y="-233.964" x="178.929">B</tspan></text>
<path transform="matrix(1,0,0,-1,180.241,145.77701)" d="M105.75998 70.69647H7.62724C5.97655 70.69647 4.63841 69.35835 4.63841 67.70764V45.67958C4.63841 44.02887 5.97655 42.69075 7.62724 42.69075H105.75998C107.41068 42.69075 108.74881 44.02887 108.74881 45.67958V67.70764C108.74881 69.35835 107.41068 70.69647 105.75998 70.69647ZM4.63841 42.69075" fill="#ccffcc"/>
<path transform="matrix(1,0,0,-1,180.241,145.77701)" stroke-width=".3985" stroke-linecap="butt" stroke-miterlimit="10" stroke-linejoin="miter" fill="none" stroke="#000000" d="M105.75998 70.69647H7.62724C5.97655 70.69647 4.63841 69.35835 4.63841 67.70764V45.67958C4.63841 44.02887 5.97655 42.69075 7.62724 42.69075H105.75998C107.41068 42.69075 108.74881 44.02887 108.74881 45.67958V67.70764C108.74881 69.35835 107.41068 70.69647 105.75998 70.69647ZM4.63841 42.69075"/>
<text xml:space="preserve" transform="matrix(1 0 -0 1 0 331.239)" font-size="9.9626" font-family="CMR10"><tspan y="-245.919" x="214.656 221.849 226.2724 229.042 235.12917 242.32216 247.58242 252.00582 254.77542">CellCycle</tspan><tspan y="-233.964" x="188.199 194.98354 200.52274 205.50403 209.42929">Phase</tspan></text>
<text xml:space="preserve" transform="matrix(1 0 -0 1 0 331.239)" font-size="9.9626" font-family="CMSY10" font-style="italic"><tspan y="-233.964" x="217.17401">&#x2192;</tspan></text>
<text xml:space="preserve" transform="matrix(1 0 -0 1 0 331.239)" font-size="9.9626" font-family="CMR10"><tspan y="-233.964" x="230.45801 238.27866 243.25995 248.24124 253.78044 258.76176 266.5824 271.5637 276.54499">G1/S/G2/M</tspan></text>
<path transform="matrix(1,0,0,-1,180.241,145.77701)" d="M-20.76569-43.9361H-92.62154C-94.27225-43.9361-95.61037-45.27422-95.61037-46.92493V-66.4623C-95.61037-68.113-94.27225-69.45113-92.62154-69.45113H-20.76569C-19.11497-69.45113-17.77686-68.113-17.77686-66.4623V-46.92493C-17.77686-45.27422-19.11497-43.9361-20.76569-43.9361ZM-95.61037-69.45113" fill="#ffe6cc"/>
<path transform="matrix(1,0,0,-1,180.241,145.77701)" stroke-width=".3985" stroke-linecap="butt" stroke-miterlimit="10" stroke-linejoin="miter" fill="none" stroke="#000000" d="M-20.76569-43.9361H-92.62154C-94.27225-43.9361-95.61037-45.27422-95.61037-46.92493V-66.4623C-95.61037-68.113-94.27225-69.45113-92.62154-69.45113H-20.76569C-19.11497-69.45113-17.77686-68.113-17.77686-66.4623V-46.92493C-17.77686-45.27422-19.11497-43.9361-20.76569-43.9361ZM-95.61037-69.45113"/>
<text xml:space="preserve" transform="matrix(1 0 -0 1 -.0000076293949 331.239)" font-size="9.9626" font-family="CMR10"><tspan y="-131.288" x="92.055 99.66643 102.43603 105.340129 108.244228 112.66762 116.57296 120.99635 126.25661 130.13207 132.90167 137.88297 141.75843 144.52803 149.50933">Differentiation</tspan><tspan y="-119.33199" x="87.952 94.736537 101.521068">EPO</tspan></text>
<text xml:space="preserve" transform="matrix(1 0 -0 1 -.0000076293949 331.239)" font-size="9.9626" font-family="CMSY10" font-style="italic"><tspan y="-119.33199" x="112.582">&#x2192;</tspan></text>
<text xml:space="preserve" transform="matrix(1 0 -0 1 -.0000076293949 331.239)" font-size="9.9626" font-family="CMR10"><tspan y="-119.33199" x="125.865 133.68564 140.3307 146.68685 154.1588">GATA1</tspan></text>
<path transform="matrix(1,0,0,-1,180.241,145.77701)" d="M103.21394-42.69075H10.17328C8.52257-42.69075 7.18445-44.02887 7.18445-45.67958V-67.70764C7.18445-69.35835 8.52257-70.69647 10.17328-70.69647H103.21394C104.86465-70.69647 106.20277-69.35835 106.20277-67.70764V-45.67958C106.20277-44.02887 104.86465-42.69075 103.21394-42.69075ZM7.18445-70.69647" fill="#f2ccd9"/>
<path transform="matrix(1,0,0,-1,180.241,145.77701)" stroke-width=".3985" stroke-linecap="butt" stroke-miterlimit="10" stroke-linejoin="miter" fill="none" stroke="#000000" d="M103.21394-42.69075H10.17328C8.52257-42.69075 7.18445-44.02887 7.18445-45.67958V-67.70764C7.18445-69.35835 8.52257-70.69647 10.17328-70.69647H103.21394C104.86465-70.69647 106.20277-69.35835 106.20277-67.70764V-45.67958C106.20277-44.02887 104.86465-42.69075 103.21394-42.69075ZM7.18445-70.69647"/>
<text xml:space="preserve" transform="matrix(1 0 -0 1 0 331.239)" font-size="9.9626" font-family="CMR10"><tspan y="-132.533" x="201.912 209.105 211.8746 215.77994 220.20334 225.18463 230.72383 233.49344 238.47473 247.33148 254.52448 257.29408 262.55433 266.69877">CircadianClock</tspan><tspan y="-120.578" x="190.745 198.35642 203.05876 208.31902 213.30031 220.77227 223.54187 228.52317 233.78342 240.98639 248.73729 252.66255 257.08595 259.85554 262.62513 265.3947 270.376 274.25148 279.23277">Day/NightOscillator</tspan></text>
<path transform="matrix(1,0,0,-1,180.241,145.77701)" d="M19.45464-8.50412C19.45464 2.24051 10.74463 10.95052 0 10.95052-10.74463 10.95052-19.45464 2.24051-19.45464-8.50412-19.45464-19.24875-10.74463-27.95876 0-27.95876 10.74463-27.95876 19.45464-19.24875 19.45464-8.50412ZM0-8.50412" fill="#f7f7f7"/>
<path transform="matrix(1,0,0,-1,180.241,145.77701)" stroke-width=".3985" stroke-linecap="butt" stroke-miterlimit="10" stroke-linejoin="miter" fill="none" stroke="#000000" d="M19.45464-8.50412C19.45464 2.24051 10.74463 10.95052 0 10.95052-10.74463 10.95052-19.45464 2.24051-19.45464-8.50412-19.45464-19.24875-10.74463-27.95876 0-27.95876 10.74463-27.95876 19.45464-19.24875 19.45464-8.50412ZM0-8.50412"/>
<text xml:space="preserve" transform="matrix(1 0 -0 1 0 331.239)" font-size="9.9626" font-family="CMR10"><tspan y="-179.476" x="171.662 178.855 183.2784 186.048">Cell</tspan><tspan y="-167.521" x="168.894 174.4332 178.30866 183.28995 187.1654">State</tspan></text>
<path transform="matrix(1,0,0,-1,180.241,145.77701)" d="M82.05162-127.56064H-82.05162C-83.70233-127.56064-85.04045-128.89878-85.04045-130.54947V-152.91861C-85.04045-154.56932-83.70233-155.90744-82.05162-155.90744H82.05162C83.70233-155.90744 85.04045-154.56932 85.04045-152.91861V-130.54947C85.04045-128.89878 83.70233-127.56064 82.05162-127.56064ZM-85.04045-155.90744" fill="#ffd9d9"/>
<path transform="matrix(1,0,0,-1,180.241,145.77701)" stroke-width=".3985" stroke-linecap="butt" stroke-miterlimit="10" stroke-linejoin="miter" fill="none" stroke="#000000" d="M82.05162-127.56064H-82.05162C-83.70233-127.56064-85.04045-128.89878-85.04045-130.54947V-152.91861C-85.04045-154.56932-83.70233-155.90744-82.05162-155.90744H82.05162C83.70233-155.90744 85.04045-154.56932 85.04045-152.91861V-130.54947C85.04045-128.89878 83.70233-127.56064 82.05162-127.56064ZM-85.04045-155.90744"/>
<text xml:space="preserve" transform="matrix(1 0 -0 1 0 331.23899)" font-size="9.9626" font-family="CMR10"><tspan y="-47.494" x="142.728 149.23358 154.21488 159.75408 165.29328 168.06288 173.04418 176.91963 179.68924 184.67053 193.52729 199.7539 204.4662 209.44751 213.87091">PopulationLayer</tspan><tspan y="-35.538" x="117.836 121.71145 126.13484 131.3951 135.27056 140.25185 145.5121 148.28171 153.8209 161.56186 165.98526 171.24552 175.39992 180.93912 185.92041 191.44965 196.43094 200.8643 206.95146 211.37487 216.35616 221.61641 225.49187 230.47316 234.89656 238.77202">(cytokineexchange,contact)</tspan></text>
<path transform="matrix(1,0,0,-1,180.241,145.77701)" d="M-116.37607 89.29248H-167.09203C-168.74272 89.29248-170.08086 87.95435-170.08086 86.30365V72.43861C-170.08086 70.78792-168.74272 69.44978-167.09203 69.44978H-116.37607C-114.72536 69.44978-113.38724 70.78792-113.38724 72.43861V86.30365C-113.38724 87.95435-114.72536 89.29248-116.37607 89.29248ZM-170.08086 69.44978" fill="#f2f2f2"/>
<path transform="matrix(1,0,0,-1,180.241,145.77701)" stroke-width=".3985" stroke-linecap="butt" stroke-miterlimit="10" stroke-linejoin="miter" fill="none" stroke="#000000" d="M-116.37607 89.29248H-167.09203C-168.74272 89.29248-170.08086 87.95435-170.08086 86.30365V72.43861C-170.08086 70.78792-168.74272 69.44978-167.09203 69.44978H-116.37607C-114.72536 69.44978-113.38724 70.78792-113.38724 72.43861V86.30365C-113.38724 87.95435-114.72536 89.29248-116.37607 89.29248ZM-170.08086 69.44978"/>
<text xml:space="preserve" transform="matrix(1 0 -0 1 -.000005722046 331.239)" font-size="7.9701" font-family="CMR8"><tspan y="-262.84" x="16.762 22.875065 29.219265 37.56396 44.6175 49.200307 55.544507">TNF/FAS</tspan></text>
<path transform="matrix(1,0,0,-1,180.241,145.77701)" d="M167.09203 89.29248H116.37607C114.72536 89.29248 113.38724 87.95435 113.38724 86.30365V72.43861C113.38724 70.78792 114.72536 69.44978 116.37607 69.44978H167.09203C168.74272 69.44978 170.08086 70.78792 170.08086 72.43861V86.30365C170.08086 87.95435 168.74272 89.29248 167.09203 89.29248ZM113.38724 69.44978" fill="#f2f2f2"/>
<path transform="matrix(1,0,0,-1,180.241,145.77701)" stroke-width=".3985" stroke-linecap="butt" stroke-miterlimit="10" stroke-linejoin="miter" fill="none" stroke="#000000" d="M167.09203 89.29248H116.37607C114.72536 89.29248 113.38724 87.95435 113.38724 86.30365V72.43861C113.38724 70.78792 114.72536 69.44978 116.37607 69.44978H167.09203C168.74272 69.44978 170.08086 70.78792 170.08086 72.43861V86.30365C170.08086 87.95435 168.74272 89.29248 167.09203 89.29248ZM113.38724 69.44978"/>
<text xml:space="preserve" transform="matrix(1 0 -0 1 0 331.239)" font-size="7.9701" font-family="CMR8"><tspan y="-262.065" x="305.977 312.09007 315.85197 318.20314 323.3757 328.07807 330.42924 334.19114">CellSize</tspan></text>
<path transform="matrix(1,0,0,-1,180.241,145.77701)" d="M-116.37607-69.44978H-167.09203C-168.74272-69.44978-170.08086-70.78792-170.08086-72.43861V-86.30365C-170.08086-87.95435-168.74272-89.29248-167.09203-89.29248H-116.37607C-114.72536-89.29248-113.38724-87.95435-113.38724-86.30365V-72.43861C-113.38724-70.78792-114.72536-69.44978-116.37607-69.44978ZM-170.08086-89.29248" fill="#f2f2f2"/>
<path transform="matrix(1,0,0,-1,180.241,145.77701)" stroke-width=".3985" stroke-linecap="butt" stroke-miterlimit="10" stroke-linejoin="miter" fill="none" stroke="#000000" d="M-116.37607-69.44978H-167.09203C-168.74272-69.44978-170.08086-70.78792-170.08086-72.43861V-86.30365C-170.08086-87.95435-168.74272-89.29248-167.09203-89.29248H-116.37607C-114.72536-89.29248-113.38724-87.95435-113.38724-86.30365V-72.43861C-113.38724-70.78792-114.72536-69.44978-116.37607-69.44978ZM-170.08086-89.29248"/>
<text xml:space="preserve" transform="matrix(1 0 -0 1 -.000005722046 331.239)" font-size="7.9701" font-family="CMR8"><tspan y="-103.369" x="29.456 35.218385 40.980768">EPO</tspan></text>
<path transform="matrix(1,0,0,-1,180.241,145.77701)" d="M167.09203-69.44978H116.37607C114.72536-69.44978 113.38724-70.78792 113.38724-72.43861V-86.30365C113.38724-87.95435 114.72536-89.29248 116.37607-89.29248H167.09203C168.74272-89.29248 170.08086-87.95435 170.08086-86.30365V-72.43861C170.08086-70.78792 168.74272-69.44978 167.09203-69.44978ZM113.38724-89.29248" fill="#f2f2f2"/>
<path transform="matrix(1,0,0,-1,180.241,145.77701)" stroke-width=".3985" stroke-linecap="butt" stroke-miterlimit="10" stroke-linejoin="miter" fill="none" stroke="#000000" d="M167.09203-69.44978H116.37607C114.72536-69.44978 113.38724-70.78792 113.38724-72.43861V-86.30365C113.38724-87.95435 114.72536-89.29248 116.37607-89.29248H167.09203C168.74272-89.29248 170.08086-87.95435 170.08086-86.30365V-72.43861C170.08086-70.78792 168.74272-69.44978 167.09203-69.44978ZM113.38724-89.29248"/>
<text xml:space="preserve" transform="matrix(1 0 -0 1 0 331.239)" font-size="7.9701" font-family="CMR8"><tspan y="-104.099" x="312.154 317.44615 319.7973 324.02943 328.49269">Light</tspan></text>
<path transform="matrix(1,0,0,-1,180.241,145.77701)" stroke-width=".79701" stroke-linecap="butt" stroke-miterlimit="10" stroke-linejoin="miter" fill="none" stroke="#999999" d="M-113.18797 79.37114H-103.26642L-118.5144 61.53441"/>
<path transform="matrix(-.64977,.76007,.76007,.64977,64.034877,81.54245)" d="M8.78642 0 1.28699 2.82533 3.75174 0 1.28699-2.82533Z" fill="#999999"/>
<path transform="matrix(-.64977,.76007,.76007,.64977,64.034877,81.54245)" stroke-width=".79701" stroke-linecap="butt" stroke-miterlimit="10" stroke-linejoin="miter" fill="none" stroke="#999999" d="M8.78642 0 1.28699 2.82533 3.75174 0 1.28699-2.82533Z"/>
<path transform="matrix(1,0,0,-1,180.241,145.77701)" stroke-width=".79701" stroke-linecap="butt" stroke-miterlimit="10" stroke-linejoin="miter" fill="none" stroke="#999999" d="M113.18797 79.37114H103.26642L107.40045 62.87154"/>
<path transform="matrix(.243,.97002,.97002,-.243,286.7782,79.45951)" d="M8.78642 0 1.28699 2.82533 3.75174 0 1.28699-2.82533Z" fill="#999999"/>
<path transform="matrix(.243,.97002,.97002,-.243,286.7782,79.45951)" stroke-width=".79701" stroke-linecap="butt" stroke-miterlimit="10" stroke-linejoin="miter" fill="none" stroke="#999999" d="M8.78642 0 1.28699 2.82533 3.75174 0 1.28699-2.82533Z"/>
<path transform="matrix(1,0,0,-1,180.241,145.77701)" stroke-width=".79701" stroke-linecap="butt" stroke-miterlimit="10" stroke-linejoin="miter" fill="none" stroke="#999999" d="M-113.18797-79.37114H-103.26642L-97.79881-62.74364"/>
<path transform="matrix(.31233,-.94994,-.94994,-.31233,81.33261,211.89528)" d="M8.78642 0 1.28699 2.82533 3.75174 0 1.28699-2.82533Z" fill="#999999"/>
<path transform="matrix(.31233,-.94994,-.94994,-.31233,81.33261,211.89528)" stroke-width=".79701" stroke-linecap="butt" stroke-miterlimit="10" stroke-linejoin="miter" fill="none" stroke="#999999" d="M8.78642 0 1.28699 2.82533 3.75174 0 1.28699-2.82533Z"/>
<path transform="matrix(1,0,0,-1,180.241,145.77701)" stroke-width=".79701" stroke-linecap="butt" stroke-miterlimit="10" stroke-linejoin="miter" fill="none" stroke="#999999" d="M113.18797-79.37114H103.26642L105.52994-63.00224"/>
<path transform="matrix(.13693,-.99054,-.99054,-.13693,285.2845,212.29813)" d="M8.78642 0 1.28699 2.82533 3.75174 0 1.28699-2.82533Z" fill="#999999"/>
<path transform="matrix(.13693,-.99054,-.99054,-.13693,285.2845,212.29813)" stroke-width=".79701" stroke-linecap="butt" stroke-miterlimit="10" stroke-linejoin="miter" fill="none" stroke="#999999" d="M8.78642 0 1.28699 2.82533 3.75174 0 1.28699-2.82533Z"/>
<path transform="matrix(1,0,0,-1,180.241,145.77701)" stroke-width=".79701" stroke-linecap="butt" stroke-miterlimit="10" stroke-linejoin="miter" fill="none" stroke="#b2b3b2" d="M-56.69362 42.4915-17.26395 8.31166"/>
<path transform="matrix(.7556,.65501,.65501,-.7556,160.9889,135.74185)" d="M5.95174 0 1.28694 1.76237 2.83046 0 1.28694-1.76237Z" fill="#b2b3b2"/>
<path transform="matrix(.7556,.65501,.65501,-.7556,160.9889,135.74185)" stroke-width=".79701" stroke-linecap="butt" stroke-miterlimit="10" stroke-linejoin="miter" fill="none" stroke="#b2b3b2" d="M5.95174 0 1.28694 1.76237 2.83046 0 1.28694-1.76237Z"/>
<path transform="matrix(1,0,0,-1,180.241,145.77701)" stroke-width=".79701" stroke-linecap="butt" stroke-miterlimit="10" stroke-linejoin="miter" fill="none" stroke="#b2b3b2" d="M56.69362 42.4915 17.26395 8.31166"/>
<path transform="matrix(-.7556,.65501,.65501,.7556,199.49309,135.74185)" d="M5.95174 0 1.28694 1.76237 2.83046 0 1.28694-1.76237Z" fill="#b2b3b2"/>
<path transform="matrix(-.7556,.65501,.65501,.7556,199.49309,135.74185)" stroke-width=".79701" stroke-linecap="butt" stroke-miterlimit="10" stroke-linejoin="miter" fill="none" stroke="#b2b3b2" d="M5.95174 0 1.28694 1.76237 2.83046 0 1.28694-1.76237Z"/>
<path transform="matrix(1,0,0,-1,180.241,145.77701)" stroke-width=".79701" stroke-linecap="butt" stroke-miterlimit="10" stroke-linejoin="miter" fill="none" stroke="#b2b3b2" d="M-56.69362-43.73685-17.88458-24.38925"/>
<path transform="matrix(.8949,-.44614,-.44614,-.8949,160.00174,171.34015)" d="M5.95174 0 1.28694 1.76237 2.83046 0 1.28694-1.76237Z" fill="#b2b3b2"/>
<path transform="matrix(.8949,-.44614,-.44614,-.8949,160.00174,171.34015)" stroke-width=".79701" stroke-linecap="butt" stroke-miterlimit="10" stroke-linejoin="miter" fill="none" stroke="#b2b3b2" d="M5.95174 0 1.28694 1.76237 2.83046 0 1.28694-1.76237Z"/>
<path transform="matrix(1,0,0,-1,180.241,145.77701)" stroke-width=".79701" stroke-linecap="butt" stroke-miterlimit="10" stroke-linejoin="miter" fill="none" stroke="#b2b3b2" d="M56.69362-42.4915 17.9304-24.29475"/>
<path transform="matrix(-.90518,-.42493,-.42493,.90518,200.55313,171.18985)" d="M5.95174 0 1.28694 1.76237 2.83046 0 1.28694-1.76237Z" fill="#b2b3b2"/>
<path transform="matrix(-.90518,-.42493,-.42493,.90518,200.55313,171.18985)" stroke-width=".79701" stroke-linecap="butt" stroke-miterlimit="10" stroke-linejoin="miter" fill="none" stroke="#b2b3b2" d="M5.95174 0 1.28694 1.76237 2.83046 0 1.28694-1.76237Z"/>
<path transform="matrix(1,0,0,-1,180.241,145.77701)" stroke-width=".79701" stroke-linecap="butt" stroke-dasharray="2.98883,2.98883" stroke-miterlimit="10" stroke-linejoin="miter" fill="none" stroke="#4d4dff" d="M0 11.14977C14.9327 31.65408 31.38783 40.7508 52.24875 42.18578"/>
<path transform="matrix(.99762,-.06862,-.06862,-.99762,229.86479,103.771778)" d="M5.95174 0 1.28694 1.76237 2.83046 0 1.28694-1.76237Z" fill="#4d4dff"/>
<path transform="matrix(.99762,-.06862,-.06862,-.99762,229.86479,103.771778)" stroke-width=".79701" stroke-linecap="butt" stroke-miterlimit="10" stroke-linejoin="miter" fill="none" stroke="#4d4dff" d="M5.95174 0 1.28694 1.76237 2.83046 0 1.28694-1.76237Z"/>
<path transform="matrix(1,0,0,-1,180.241,145.77701)" stroke-width=".79701" stroke-linecap="butt" stroke-dasharray="2.98883,2.98883" stroke-miterlimit="10" stroke-linejoin="miter" fill="none" stroke="#4d4dff" d="M0 11.14977C-14.9327 31.65408-31.38783 40.7508-52.24875 42.18578"/>
<path transform="matrix(-.99762,-.06862,-.06862,.99762,130.6172,103.771778)" d="M5.95174 0 1.28694 1.76237 2.83046 0 1.28694-1.76237Z" fill="#4d4dff"/>
<path transform="matrix(-.99762,-.06862,-.06862,.99762,130.6172,103.771778)" stroke-width=".79701" stroke-linecap="butt" stroke-miterlimit="10" stroke-linejoin="miter" fill="none" stroke="#4d4dff" d="M5.95174 0 1.28694 1.76237 2.83046 0 1.28694-1.76237Z"/>
<path transform="matrix(1,0,0,-1,180.241,145.77701)" stroke-width=".79701" stroke-linecap="butt" stroke-dasharray="2.98883,2.98883" stroke-miterlimit="10" stroke-linejoin="miter" fill="none" stroke="#4d4dff" d="M0-28.158C-17.52664-43.05557-34.01553-47.58719-52.30116-44.48256"/>
<path transform="matrix(-.98586,-.16737,-.16737,.98586,130.53383,190.69997)" d="M5.95174 0 1.28694 1.76237 2.83046 0 1.28694-1.76237Z" fill="#4d4dff"/>
<path transform="matrix(-.98586,-.16737,-.16737,.98586,130.53383,190.69997)" stroke-width=".79701" stroke-linecap="butt" stroke-miterlimit="10" stroke-linejoin="miter" fill="none" stroke="#4d4dff" d="M5.95174 0 1.28694 1.76237 2.83046 0 1.28694-1.76237Z"/>
<path transform="matrix(1,0,0,-1,180.241,145.77701)" stroke-width=".79701" stroke-linecap="butt" stroke-dasharray="2.98883,2.98883" stroke-miterlimit="10" stroke-linejoin="miter" fill="none" stroke="#4d4dff" d="M0-28.158C17.6862-42.57613 34.28023-46.77223 52.31741-43.3273"/>
<path transform="matrix(.98221,-.18759,-.18759,-.98221,229.974,189.5979)" d="M5.95174 0 1.28694 1.76237 2.83046 0 1.28694-1.76237Z" fill="#4d4dff"/>
<path transform="matrix(.98221,-.18759,-.18759,-.98221,229.974,189.5979)" stroke-width=".79701" stroke-linecap="butt" stroke-miterlimit="10" stroke-linejoin="miter" fill="none" stroke="#4d4dff" d="M5.95174 0 1.28694 1.76237 2.83046 0 1.28694-1.76237Z"/>
<path transform="matrix(1,0,0,-1,180.241,145.77701)" stroke-width=".79701" stroke-linecap="butt" stroke-miterlimit="10" stroke-linejoin="miter" fill="none" stroke="#999999" d="M0-28.158V-48.00069-120.99251"/>
<path transform="matrix(0,1,1,0,180.241,263.21705)" d="M8.78642 0 1.28699 2.82533 3.75174 0 1.28699-2.82533Z" fill="#999999"/>
<path transform="matrix(0,1,1,0,180.241,263.21705)" stroke-width=".79701" stroke-linecap="butt" stroke-miterlimit="10" stroke-linejoin="miter" fill="none" stroke="#999999" d="M8.78642 0 1.28699 2.82533 3.75174 0 1.28699-2.82533Z"/>
<path transform="matrix(1,0,0,-1,180.241,145.77701)" stroke-width=".79701" stroke-linecap="butt" stroke-miterlimit="10" stroke-linejoin="miter" fill="none" stroke="#999999" d="M0-127.36139V-107.51872-34.52689"/>
<path transform="matrix(0,-1,-1,-0,180.241,183.85639)" d="M8.78642 0 1.28699 2.82533 3.75174 0 1.28699-2.82533Z" fill="#999999"/>
<path transform="matrix(0,-1,-1,-0,180.241,183.85639)" stroke-width=".79701" stroke-linecap="butt" stroke-miterlimit="10" stroke-linejoin="miter" fill="none" stroke="#999999" d="M8.78642 0 1.28699 2.82533 3.75174 0 1.28699-2.82533Z"/>
<path transform="matrix(1,0,0,-1,180.241,145.77701)" stroke-width=".79701" stroke-linecap="butt" stroke-dasharray="2.98883,2.98883" stroke-miterlimit="10" stroke-linejoin="miter" fill="none" stroke="#4d4dff" d="M85.2397-127.36139C119.25578-93.3453 9.26543 14.14468 9.26543 38.03603"/>
<path transform="matrix(0,-1,-1,-0,189.50643,110.37221)" d="M5.95174 0 1.28694 1.76237 2.83046 0 1.28694-1.76237Z" fill="#4d4dff"/>
<path transform="matrix(0,-1,-1,-0,189.50643,110.37221)" stroke-width=".79701" stroke-linecap="butt" stroke-miterlimit="10" stroke-linejoin="miter" fill="none" stroke="#4d4dff" d="M5.95174 0 1.28694 1.76237 2.83046 0 1.28694-1.76237Z"/>
<text fill="#4d4dff" xml:space="preserve" transform="matrix(1 0 -0 1 0 331.239)" font-size="6.9738" font-family="CMR7"><tspan y="-143.41" x="243.967 247.50969 251.69397 254.80429 258.77937 262.96363 265.21617 269.61665 273.15934">cytokines</tspan></text>
<path transform="matrix(1,0,0,-1,180.241,145.77701)" stroke-width=".79701" stroke-linecap="butt" stroke-dasharray="2.98883,2.98883" stroke-miterlimit="10" stroke-linejoin="miter" fill="none" stroke="#4d4dff" d="M-85.2397-127.36139C-119.25578-93.3453-95.80963-97.9972-95.80963-74.10585"/>
<path transform="matrix(0,-1,-1,-0,84.431369,222.5141)" d="M5.95174 0 1.28694 1.76237 2.83046 0 1.28694-1.76237Z" fill="#4d4dff"/>
<path transform="matrix(0,-1,-1,-0,84.431369,222.5141)" stroke-width=".79701" stroke-linecap="butt" stroke-miterlimit="10" stroke-linejoin="miter" fill="none" stroke="#4d4dff" d="M5.95174 0 1.28694 1.76237 2.83046 0 1.28694-1.76237Z"/>
<text fill="#4d4dff" xml:space="preserve" transform="matrix(1 0 -0 1 .0000038146974 331.239)" font-size="6.9738" font-family="CMR7"><tspan y="-87.34" x="50.076 53.23513 55.487668 59.462736 63.8632 67.838268 70.090808">signals</tspan></text>
<text xml:space="preserve" transform="matrix(1 0 -0 1 -.000015258789 331.239)" font-size="7.9701" font-family="CMBX8" font-weight="bold"><tspan y="-312.421" x="158.682 164.10965 166.81949 172.24713 177.1328 179.84264 187.56566 191.9014 196.37262 199.08246">Singlecell</tspan></text>
<text xml:space="preserve" transform="matrix(1 0 -0 1 0 331.239)" font-size="7.9701" font-family="CMBX8" font-weight="bold"><tspan y="-14.833" x="143.558 149.94205 154.82772 160.25536 165.683 168.39284 173.14302 176.93679 179.64662 184.53229 193.21173 199.06975 203.54895 208.43463 212.90586">PopulationLayer</tspan></text>
</svg>
